<?xml version="1.0" encoding="utf-8"?>
<svg version="1.1" xmlns:xlink="http://www.w3.org/1999/xlink" width="43px" height="40px" xmlns="http://www.w3.org/2000/svg">
  <defs>
    <pattern id="BGPattern" patternUnits="userSpaceOnUse" alignment="0 0" imageRepeat="None" />
    <mask fill="white" id="Clip10">
      <path d="M 41.82421875 24.30025445292621  C 42.60807291666667 25.301102629346907  43 26.513994910941477  43 27.938931297709924  C 43 29.31297709923664  42.61668669871795 30.458015267175572  41.85006009615385 31.37404580152672  C 41.08343349358975 32.29007633587786  40.019631410256416 32.74809160305344  38.65865384615385 32.74809160305344  C 37.95232371794872 32.74809160305344  37.284755608974365 32.59966072943172  36.65594951923077 32.30279898218829  C 36.02714342948718 32.00593723494487  35.51893028846154 31.68363019508057  35.13131009615385 31.335877862595417  C 34.74368990384615 30.98812553011026  34.25701121794872 30.665818490245968  33.67127403846154 30.368956743002542  C 33.085536858974365 30.072094995759116  32.473958333333336 29.923664122137406  31.836538461538463 29.923664122137406  C 29.941506410256412 29.923664122137406  28.993990384615383 30.97540288379983  28.993990384615383 33.078880407124686  C 28.993990384615383 33.74045801526718  29.1318108974359 34.715860899067  29.40745192307692 36.00508905852417  C 29.68309294871795 37.294317217981344  29.812299679487182 38.26972010178117  29.795072115384617 38.93129770992366  L 29.795072115384617 39.05852417302799  C 29.416065705128208 39.05852417302799  29.1318108974359 39.06700593723494  28.942307692307693 39.083969465648856  C 28.356570512820518 39.13486005089059  27.516726762820518 39.23240033927057  26.422776442307693 39.37659033078881  C 25.328826121794872 39.52078032230704  24.3339342948718 39.63528413910093  23.438100961538463 39.720101781170484  C 22.54226762820513 39.80491942324003  21.69811698717949 39.84732824427481  20.90564903846154 39.84732824427481  C 19.854767628205128 39.84732824427481  18.967548076923077 39.6225614927905  18.243990384615383 39.17302798982188  C 17.520432692307693 38.72349448685326  17.158653846153847 38.01526717557252  17.158653846153847 37.04834605597965  C 17.158653846153847 36.42069550466496  17.309395032051285 35.81849024597116  17.610877403846153 35.24173027989822  C 17.912359775641026 34.66497031382527  18.239683493589745 34.18575063613232  18.592848557692307 33.80407124681934  C 18.946013621794876 33.42239185750636  19.27333733974359 32.92196776929601  19.57481971153846 32.30279898218829  C 19.876302083333336 31.68363019508057  20.02704326923077 31.02629346904156  20.02704326923077 30.330788804071247  C 20.02704326923077 28.99067005937235  19.56189903846154 27.943172179813402  18.631610576923077 27.1882951653944  C 17.701322115384617 26.4334181509754  16.53846153846154 26.055979643765905  15.143028846153847 26.055979643765905  C 13.69591346153846 26.055979643765905  12.464142628205128 26.441899915182354  11.447716346153847 27.21374045801527  C 10.431290064102562 27.98558100084818  9.923076923076923 29.067005937234942  9.923076923076923 30.458015267175572  C 9.923076923076923 31.1874469889737  10.052283653846153 31.891433418150974  10.310697115384615 32.56997455470738  C 10.569110576923078 33.248515691263776  10.857672275641027 33.79558948261238  11.17638221153846 34.211195928753185  C 11.4950921474359 34.62680237489398  11.783653846153847 35.0763358778626  12.042067307692308 35.55979643765903  C 12.300480769230768 36.04325699745547  12.4296875 36.4715860899067  12.4296875 36.844783715012724  C 12.4296875 37.608142493638674  12.033453525641027 38.363019508057675  11.240985576923077 39.10941475826972  C 10.603565705128206 39.703138252756574  9.595753205128206 40  8.217548076923077 40  C 6.580929487179487 40  4.470552884615385 39.796437659033074  1.8864182692307692 39.38931297709924  C 1.7313701923076925 39.35538592027142  1.494491185897436 39.321458863443596  1.17578125 39.287531806615775  C 0.8570713141025642 39.25360474978796  0.6201923076923078 39.21967769296013  0.4651442307692308 39.18575063613232  L 0.12920673076923078 39.13486005089059  C 0.11197916666666669 39.13486005089059  0.08613782051282053 39.12637828668363  0.05168269230769231 39.10941475826972  C 0.0172275641025641 39.10941475826972  0 39.10093299406277  0 39.083969465648856  L 0 13.027989821882953  C 0.03445512820512821 13.04495335029686  0.18519631410256407 13.074639525021201  0.4522235576923077 13.11704834605598  C 0.7192508012820514 13.15945716709075  1.0121193910256412 13.20186598812553  1.3308293269230769 13.244274809160306  C 1.649539262820513 13.286683630195078  1.8347355769230769 13.316369804919423  1.8864182692307692 13.333333333333336  C 4.470552884615385 13.740458015267176  6.580929487179487 13.944020356234095  8.217548076923077 13.944020356234095  C 9.595753205128206 13.944020356234095  10.603565705128206 13.647158608990665  11.240985576923077 13.053435114503817  C 12.033453525641027 12.307039864291767  12.4296875 11.552162849872776  12.4296875 10.788804071246819  C 12.4296875 10.415606446140796  12.300480769230768 9.987277353689565  12.042067307692308 9.50381679389313  C 11.783653846153847 9.020356234096694  11.4950921474359 8.570822731128072  11.17638221153846 8.155216284987276  C 10.857672275641027 7.739609838846477  10.569110576923078 7.192536047497877  10.310697115384615 6.513994910941476  C 10.052283653846153 5.835453774385071  9.923076923076923 5.131467345207801  9.923076923076923 4.40203562340967  C 9.923076923076923 3.0110262934690413  10.431290064102562 1.9296013570822712  11.447716346153847 1.1577608142493645  C 12.464142628205128 0.3859202714164578  13.704527243589745 0  15.168870192307692 0  C 16.54707532051282 0  17.701322115384617 0.37743850720950434  18.631610576923077 1.1323155216284997  C 19.56189903846154 1.887192536047495  20.02704326923077 2.9346904156064424  20.02704326923077 4.274809160305342  C 20.02704326923077 4.970313825275654  19.876302083333336 5.627650551314671  19.57481971153846 6.246819338422394  C 19.27333733974359 6.865988125530107  18.946013621794876 7.366412213740459  18.592848557692307 7.748091603053435  C 18.239683493589745 8.129770992366412  17.912359775641026 8.60899067005937  17.610877403846153 9.185750636132317  C 17.309395032051285 9.762510602205253  17.158653846153847 10.364715860899064  17.158653846153847 10.992366412213741  C 17.158653846153847 11.959287531806616  17.520432692307693 12.66751484308736  18.243990384615383 13.11704834605598  C 18.967548076923077 13.566581849024594  19.854767628205128 13.791348600508906  20.90564903846154 13.791348600508906  C 22.008213141025646 13.791348600508906  23.558693910256412 13.664122137404583  25.557091346153847 13.40966921119593  C 27.555488782051285 13.155216284987276  28.959535256410255 13.01102629346904  29.76923076923077 12.977099236641223  L 29.76923076923077 13.027989821882953  C 29.752003205128208 13.061916878710772  29.72185496794872 13.210347752332483  29.678786057692307 13.473282442748094  C 29.6357171474359 13.736217133163695  29.59264823717949 14.02459711620017  29.54957932692308 14.338422391857506  C 29.50651041666667 14.652247667514843  29.476362179487182 14.834605597964373  29.459134615384617 14.885496183206106  C 29.04567307692308 17.430025445292618  28.838942307692307 19.508057675996604  28.838942307692307 21.119592875318066  C 28.838942307692307 22.47667514843087  29.140424679487182 23.469041560644612  29.74338942307692 24.09669211195929  C 30.501402243589748 24.877014418999153  31.268028846153847 25.267175572519083  32.04326923076923 25.267175572519083  C 32.42227564102564 25.267175572519083  32.85727163461539 25.139949109414758  33.34825721153846 24.885496183206108  C 33.83924278846154 24.631043256997458  34.29577323717949 24.34690415606446  34.71784855769231 24.033078880407125  C 35.13992387820513 23.719253604749788  35.695512820512825 23.435114503816795  36.38461538461539 23.18066157760814  C 37.07371794871795 22.92620865139949  37.788661858974365 22.798982188295163  38.52944711538461 22.798982188295163  C 39.94210737179487 22.798982188295163  41.040364583333336 23.29940627650551  41.82421875 24.30025445292621  Z " fill-rule="evenodd" />
    </mask>
  </defs>
  <g transform="matrix(1 0 0 1 -1712 -663 )">
    <path d="M 41.82421875 24.30025445292621  C 42.60807291666667 25.301102629346907  43 26.513994910941477  43 27.938931297709924  C 43 29.31297709923664  42.61668669871795 30.458015267175572  41.85006009615385 31.37404580152672  C 41.08343349358975 32.29007633587786  40.019631410256416 32.74809160305344  38.65865384615385 32.74809160305344  C 37.95232371794872 32.74809160305344  37.284755608974365 32.59966072943172  36.65594951923077 32.30279898218829  C 36.02714342948718 32.00593723494487  35.51893028846154 31.68363019508057  35.13131009615385 31.335877862595417  C 34.74368990384615 30.98812553011026  34.25701121794872 30.665818490245968  33.67127403846154 30.368956743002542  C 33.085536858974365 30.072094995759116  32.473958333333336 29.923664122137406  31.836538461538463 29.923664122137406  C 29.941506410256412 29.923664122137406  28.993990384615383 30.97540288379983  28.993990384615383 33.078880407124686  C 28.993990384615383 33.74045801526718  29.1318108974359 34.715860899067  29.40745192307692 36.00508905852417  C 29.68309294871795 37.294317217981344  29.812299679487182 38.26972010178117  29.795072115384617 38.93129770992366  L 29.795072115384617 39.05852417302799  C 29.416065705128208 39.05852417302799  29.1318108974359 39.06700593723494  28.942307692307693 39.083969465648856  C 28.356570512820518 39.13486005089059  27.516726762820518 39.23240033927057  26.422776442307693 39.37659033078881  C 25.328826121794872 39.52078032230704  24.3339342948718 39.63528413910093  23.438100961538463 39.720101781170484  C 22.54226762820513 39.80491942324003  21.69811698717949 39.84732824427481  20.90564903846154 39.84732824427481  C 19.854767628205128 39.84732824427481  18.967548076923077 39.6225614927905  18.243990384615383 39.17302798982188  C 17.520432692307693 38.72349448685326  17.158653846153847 38.01526717557252  17.158653846153847 37.04834605597965  C 17.158653846153847 36.42069550466496  17.309395032051285 35.81849024597116  17.610877403846153 35.24173027989822  C 17.912359775641026 34.66497031382527  18.239683493589745 34.18575063613232  18.592848557692307 33.80407124681934  C 18.946013621794876 33.42239185750636  19.27333733974359 32.92196776929601  19.57481971153846 32.30279898218829  C 19.876302083333336 31.68363019508057  20.02704326923077 31.02629346904156  20.02704326923077 30.330788804071247  C 20.02704326923077 28.99067005937235  19.56189903846154 27.943172179813402  18.631610576923077 27.1882951653944  C 17.701322115384617 26.4334181509754  16.53846153846154 26.055979643765905  15.143028846153847 26.055979643765905  C 13.69591346153846 26.055979643765905  12.464142628205128 26.441899915182354  11.447716346153847 27.21374045801527  C 10.431290064102562 27.98558100084818  9.923076923076923 29.067005937234942  9.923076923076923 30.458015267175572  C 9.923076923076923 31.1874469889737  10.052283653846153 31.891433418150974  10.310697115384615 32.56997455470738  C 10.569110576923078 33.248515691263776  10.857672275641027 33.79558948261238  11.17638221153846 34.211195928753185  C 11.4950921474359 34.62680237489398  11.783653846153847 35.0763358778626  12.042067307692308 35.55979643765903  C 12.300480769230768 36.04325699745547  12.4296875 36.4715860899067  12.4296875 36.844783715012724  C 12.4296875 37.608142493638674  12.033453525641027 38.363019508057675  11.240985576923077 39.10941475826972  C 10.603565705128206 39.703138252756574  9.595753205128206 40  8.217548076923077 40  C 6.580929487179487 40  4.470552884615385 39.796437659033074  1.8864182692307692 39.38931297709924  C 1.7313701923076925 39.35538592027142  1.494491185897436 39.321458863443596  1.17578125 39.287531806615775  C 0.8570713141025642 39.25360474978796  0.6201923076923078 39.21967769296013  0.4651442307692308 39.18575063613232  L 0.12920673076923078 39.13486005089059  C 0.11197916666666669 39.13486005089059  0.08613782051282053 39.12637828668363  0.05168269230769231 39.10941475826972  C 0.0172275641025641 39.10941475826972  0 39.10093299406277  0 39.083969465648856  L 0 13.027989821882953  C 0.03445512820512821 13.04495335029686  0.18519631410256407 13.074639525021201  0.4522235576923077 13.11704834605598  C 0.7192508012820514 13.15945716709075  1.0121193910256412 13.20186598812553  1.3308293269230769 13.244274809160306  C 1.649539262820513 13.286683630195078  1.8347355769230769 13.316369804919423  1.8864182692307692 13.333333333333336  C 4.470552884615385 13.740458015267176  6.580929487179487 13.944020356234095  8.217548076923077 13.944020356234095  C 9.595753205128206 13.944020356234095  10.603565705128206 13.647158608990665  11.240985576923077 13.053435114503817  C 12.033453525641027 12.307039864291767  12.4296875 11.552162849872776  12.4296875 10.788804071246819  C 12.4296875 10.415606446140796  12.300480769230768 9.987277353689565  12.042067307692308 9.50381679389313  C 11.783653846153847 9.020356234096694  11.4950921474359 8.570822731128072  11.17638221153846 8.155216284987276  C 10.857672275641027 7.739609838846477  10.569110576923078 7.192536047497877  10.310697115384615 6.513994910941476  C 10.052283653846153 5.835453774385071  9.923076923076923 5.131467345207801  9.923076923076923 4.40203562340967  C 9.923076923076923 3.0110262934690413  10.431290064102562 1.9296013570822712  11.447716346153847 1.1577608142493645  C 12.464142628205128 0.3859202714164578  13.704527243589745 0  15.168870192307692 0  C 16.54707532051282 0  17.701322115384617 0.37743850720950434  18.631610576923077 1.1323155216284997  C 19.56189903846154 1.887192536047495  20.02704326923077 2.9346904156064424  20.02704326923077 4.274809160305342  C 20.02704326923077 4.970313825275654  19.876302083333336 5.627650551314671  19.57481971153846 6.246819338422394  C 19.27333733974359 6.865988125530107  18.946013621794876 7.366412213740459  18.592848557692307 7.748091603053435  C 18.239683493589745 8.129770992366412  17.912359775641026 8.60899067005937  17.610877403846153 9.185750636132317  C 17.309395032051285 9.762510602205253  17.158653846153847 10.364715860899064  17.158653846153847 10.992366412213741  C 17.158653846153847 11.959287531806616  17.520432692307693 12.66751484308736  18.243990384615383 13.11704834605598  C 18.967548076923077 13.566581849024594  19.854767628205128 13.791348600508906  20.90564903846154 13.791348600508906  C 22.008213141025646 13.791348600508906  23.558693910256412 13.664122137404583  25.557091346153847 13.40966921119593  C 27.555488782051285 13.155216284987276  28.959535256410255 13.01102629346904  29.76923076923077 12.977099236641223  L 29.76923076923077 13.027989821882953  C 29.752003205128208 13.061916878710772  29.72185496794872 13.210347752332483  29.678786057692307 13.473282442748094  C 29.6357171474359 13.736217133163695  29.59264823717949 14.02459711620017  29.54957932692308 14.338422391857506  C 29.50651041666667 14.652247667514843  29.476362179487182 14.834605597964373  29.459134615384617 14.885496183206106  C 29.04567307692308 17.430025445292618  28.838942307692307 19.508057675996604  28.838942307692307 21.119592875318066  C 28.838942307692307 22.47667514843087  29.140424679487182 23.469041560644612  29.74338942307692 24.09669211195929  C 30.501402243589748 24.877014418999153  31.268028846153847 25.267175572519083  32.04326923076923 25.267175572519083  C 32.42227564102564 25.267175572519083  32.85727163461539 25.139949109414758  33.34825721153846 24.885496183206108  C 33.83924278846154 24.631043256997458  34.29577323717949 24.34690415606446  34.71784855769231 24.033078880407125  C 35.13992387820513 23.719253604749788  35.695512820512825 23.435114503816795  36.38461538461539 23.18066157760814  C 37.07371794871795 22.92620865139949  37.788661858974365 22.798982188295163  38.52944711538461 22.798982188295163  C 39.94210737179487 22.798982188295163  41.040364583333336 23.29940627650551  41.82421875 24.30025445292621  Z " fill-rule="nonzero" fill="rgba(0, 0, 0, 1)" stroke="none" transform="matrix(1 0 0 1 1712 663 )" class="fill" />
    <path d="M 41.82421875 24.30025445292621  C 42.60807291666667 25.301102629346907  43 26.513994910941477  43 27.938931297709924  C 43 29.31297709923664  42.61668669871795 30.458015267175572  41.85006009615385 31.37404580152672  C 41.08343349358975 32.29007633587786  40.019631410256416 32.74809160305344  38.65865384615385 32.74809160305344  C 37.95232371794872 32.74809160305344  37.284755608974365 32.59966072943172  36.65594951923077 32.30279898218829  C 36.02714342948718 32.00593723494487  35.51893028846154 31.68363019508057  35.13131009615385 31.335877862595417  C 34.74368990384615 30.98812553011026  34.25701121794872 30.665818490245968  33.67127403846154 30.368956743002542  C 33.085536858974365 30.072094995759116  32.473958333333336 29.923664122137406  31.836538461538463 29.923664122137406  C 29.941506410256412 29.923664122137406  28.993990384615383 30.97540288379983  28.993990384615383 33.078880407124686  C 28.993990384615383 33.74045801526718  29.1318108974359 34.715860899067  29.40745192307692 36.00508905852417  C 29.68309294871795 37.294317217981344  29.812299679487182 38.26972010178117  29.795072115384617 38.93129770992366  L 29.795072115384617 39.05852417302799  C 29.416065705128208 39.05852417302799  29.1318108974359 39.06700593723494  28.942307692307693 39.083969465648856  C 28.356570512820518 39.13486005089059  27.516726762820518 39.23240033927057  26.422776442307693 39.37659033078881  C 25.328826121794872 39.52078032230704  24.3339342948718 39.63528413910093  23.438100961538463 39.720101781170484  C 22.54226762820513 39.80491942324003  21.69811698717949 39.84732824427481  20.90564903846154 39.84732824427481  C 19.854767628205128 39.84732824427481  18.967548076923077 39.6225614927905  18.243990384615383 39.17302798982188  C 17.520432692307693 38.72349448685326  17.158653846153847 38.01526717557252  17.158653846153847 37.04834605597965  C 17.158653846153847 36.42069550466496  17.309395032051285 35.81849024597116  17.610877403846153 35.24173027989822  C 17.912359775641026 34.66497031382527  18.239683493589745 34.18575063613232  18.592848557692307 33.80407124681934  C 18.946013621794876 33.42239185750636  19.27333733974359 32.92196776929601  19.57481971153846 32.30279898218829  C 19.876302083333336 31.68363019508057  20.02704326923077 31.02629346904156  20.02704326923077 30.330788804071247  C 20.02704326923077 28.99067005937235  19.56189903846154 27.943172179813402  18.631610576923077 27.1882951653944  C 17.701322115384617 26.4334181509754  16.53846153846154 26.055979643765905  15.143028846153847 26.055979643765905  C 13.69591346153846 26.055979643765905  12.464142628205128 26.441899915182354  11.447716346153847 27.21374045801527  C 10.431290064102562 27.98558100084818  9.923076923076923 29.067005937234942  9.923076923076923 30.458015267175572  C 9.923076923076923 31.1874469889737  10.052283653846153 31.891433418150974  10.310697115384615 32.56997455470738  C 10.569110576923078 33.248515691263776  10.857672275641027 33.79558948261238  11.17638221153846 34.211195928753185  C 11.4950921474359 34.62680237489398  11.783653846153847 35.0763358778626  12.042067307692308 35.55979643765903  C 12.300480769230768 36.04325699745547  12.4296875 36.4715860899067  12.4296875 36.844783715012724  C 12.4296875 37.608142493638674  12.033453525641027 38.363019508057675  11.240985576923077 39.10941475826972  C 10.603565705128206 39.703138252756574  9.595753205128206 40  8.217548076923077 40  C 6.580929487179487 40  4.470552884615385 39.796437659033074  1.8864182692307692 39.38931297709924  C 1.7313701923076925 39.35538592027142  1.494491185897436 39.321458863443596  1.17578125 39.287531806615775  C 0.8570713141025642 39.25360474978796  0.6201923076923078 39.21967769296013  0.4651442307692308 39.18575063613232  L 0.12920673076923078 39.13486005089059  C 0.11197916666666669 39.13486005089059  0.08613782051282053 39.12637828668363  0.05168269230769231 39.10941475826972  C 0.0172275641025641 39.10941475826972  0 39.10093299406277  0 39.083969465648856  L 0 13.027989821882953  C 0.03445512820512821 13.04495335029686  0.18519631410256407 13.074639525021201  0.4522235576923077 13.11704834605598  C 0.7192508012820514 13.15945716709075  1.0121193910256412 13.20186598812553  1.3308293269230769 13.244274809160306  C 1.649539262820513 13.286683630195078  1.8347355769230769 13.316369804919423  1.8864182692307692 13.333333333333336  C 4.470552884615385 13.740458015267176  6.580929487179487 13.944020356234095  8.217548076923077 13.944020356234095  C 9.595753205128206 13.944020356234095  10.603565705128206 13.647158608990665  11.240985576923077 13.053435114503817  C 12.033453525641027 12.307039864291767  12.4296875 11.552162849872776  12.4296875 10.788804071246819  C 12.4296875 10.415606446140796  12.300480769230768 9.987277353689565  12.042067307692308 9.50381679389313  C 11.783653846153847 9.020356234096694  11.4950921474359 8.570822731128072  11.17638221153846 8.155216284987276  C 10.857672275641027 7.739609838846477  10.569110576923078 7.192536047497877  10.310697115384615 6.513994910941476  C 10.052283653846153 5.835453774385071  9.923076923076923 5.131467345207801  9.923076923076923 4.40203562340967  C 9.923076923076923 3.0110262934690413  10.431290064102562 1.9296013570822712  11.447716346153847 1.1577608142493645  C 12.464142628205128 0.3859202714164578  13.704527243589745 0  15.168870192307692 0  C 16.54707532051282 0  17.701322115384617 0.37743850720950434  18.631610576923077 1.1323155216284997  C 19.56189903846154 1.887192536047495  20.02704326923077 2.9346904156064424  20.02704326923077 4.274809160305342  C 20.02704326923077 4.970313825275654  19.876302083333336 5.627650551314671  19.57481971153846 6.246819338422394  C 19.27333733974359 6.865988125530107  18.946013621794876 7.366412213740459  18.592848557692307 7.748091603053435  C 18.239683493589745 8.129770992366412  17.912359775641026 8.60899067005937  17.610877403846153 9.185750636132317  C 17.309395032051285 9.762510602205253  17.158653846153847 10.364715860899064  17.158653846153847 10.992366412213741  C 17.158653846153847 11.959287531806616  17.520432692307693 12.66751484308736  18.243990384615383 13.11704834605598  C 18.967548076923077 13.566581849024594  19.854767628205128 13.791348600508906  20.90564903846154 13.791348600508906  C 22.008213141025646 13.791348600508906  23.558693910256412 13.664122137404583  25.557091346153847 13.40966921119593  C 27.555488782051285 13.155216284987276  28.959535256410255 13.01102629346904  29.76923076923077 12.977099236641223  L 29.76923076923077 13.027989821882953  C 29.752003205128208 13.061916878710772  29.72185496794872 13.210347752332483  29.678786057692307 13.473282442748094  C 29.6357171474359 13.736217133163695  29.59264823717949 14.02459711620017  29.54957932692308 14.338422391857506  C 29.50651041666667 14.652247667514843  29.476362179487182 14.834605597964373  29.459134615384617 14.885496183206106  C 29.04567307692308 17.430025445292618  28.838942307692307 19.508057675996604  28.838942307692307 21.119592875318066  C 28.838942307692307 22.47667514843087  29.140424679487182 23.469041560644612  29.74338942307692 24.09669211195929  C 30.501402243589748 24.877014418999153  31.268028846153847 25.267175572519083  32.04326923076923 25.267175572519083  C 32.42227564102564 25.267175572519083  32.85727163461539 25.139949109414758  33.34825721153846 24.885496183206108  C 33.83924278846154 24.631043256997458  34.29577323717949 24.34690415606446  34.71784855769231 24.033078880407125  C 35.13992387820513 23.719253604749788  35.695512820512825 23.435114503816795  36.38461538461539 23.18066157760814  C 37.07371794871795 22.92620865139949  37.788661858974365 22.798982188295163  38.52944711538461 22.798982188295163  C 39.94210737179487 22.798982188295163  41.040364583333336 23.29940627650551  41.82421875 24.30025445292621  Z " stroke-width="0" stroke-dasharray="0" stroke="rgba(255, 255, 255, 0)" fill="none" transform="matrix(1 0 0 1 1712 663 )" class="stroke" mask="url(#Clip10)" />
  </g>
</svg>