<?xml version="1.0" encoding="utf-8"?>
<svg version="1.1" xmlns:xlink="http://www.w3.org/1999/xlink" width="50px" height="33px" xmlns="http://www.w3.org/2000/svg">
  <defs>
    <pattern id="BGPattern" patternUnits="userSpaceOnUse" alignment="0 0" imageRepeat="None" />
    <mask fill="white" id="Clip8">
      <path d="M 26.041666666666668 19.099609375000004  L 38.49826388888889 15.2109375  L 38.88888888888889 22.000000000000004  C 38.94675925925926 22.988281249999996  38.35358796296296 23.90494791666666  37.109375 24.75  C 35.86516203703704 25.595052083333332  34.16521990740741 26.2646484375  32.00954861111111 26.7587890625  C 29.853877314814813 27.2529296875  27.51736111111111 27.5  25 27.5  C 22.48263888888889 27.5  20.14612268518519 27.2529296875  17.99045138888889 26.7587890625  C 15.834780092592593 26.2646484375  14.134837962962965 25.595052083333332  12.890625 24.75  C 11.64641203703704 23.90494791666666  11.05324074074074 22.988281249999996  11.11111111111111 22.000000000000004  L 11.50173611111111 15.2109375  L 23.958333333333336 19.099609375000004  C 24.276620370370374 19.199869791666668  24.62384259259259 19.249999999999996  25 19.249999999999996  C 25.376157407407412 19.249999999999996  25.723379629629633 19.199869791666668  26.041666666666668 19.099609375000004  Z M 49.52256944444444 7.583984375000001  C 49.84085648148149 7.69856770833333  50 7.920572916666664  50 8.25  C 50 8.579427083333332  49.84085648148149 8.801432291666663  49.52256944444444 8.916015624999998  L 25.21701388888889 16.478515625  C 25.159143518518523 16.492838541666664  25.086805555555557 16.5  25 16.5  C 24.913194444444446 16.5  24.84085648148148 16.492838541666664  24.78298611111111 16.478515625  L 10.633680555555555 12.052734375  C 10.011574074074076 12.539713541666663  9.49797453703704 13.33821614583333  9.092881944444445 14.448242187500002  C 8.687789351851853 15.558268229166664  8.441840277777777 16.836588541666664  8.355034722222223 18.283203124999996  C 9.266493055555555 18.798828124999996  9.722222222222223 19.57942708333333  9.722222222222223 20.625  C 9.722222222222223 21.613281250000004  9.302662037037038 22.379557291666664  8.463541666666668 22.923828124999996  L 9.722222222222223 32.2265625  C 9.751157407407408 32.42708333333333  9.69328703703704 32.60611979166667  9.54861111111111 32.763671875  C 9.418402777777777 32.921223958333336  9.244791666666668 33  9.027777777777777 33  L 4.861111111111112 33  C 4.644097222222222 33  4.470486111111112 32.921223958333336  4.340277777777778 32.763671875  C 4.195601851851852 32.60611979166667  4.137731481481482 32.42708333333333  4.166666666666666 32.2265625  L 5.425347222222222 22.923828124999996  C 4.586226851851852 22.379557291666664  4.166666666666666 21.613281250000004  4.166666666666666 20.625  C 4.166666666666666 19.57942708333333  4.636863425925926 18.784505208333336  5.577256944444445 18.240234375  C 5.736400462962964 15.275390625  6.4453125 12.912109374999998  7.703993055555555 11.150390625  L 0.4774305555555556 8.916015624999998  C 0.15914351851851852 8.801432291666663  0 8.579427083333332  0 8.25  C 0 7.920572916666664  0.15914351851851852 7.69856770833333  0.4774305555555556 7.583984375000001  L 24.78298611111111 0.02148437499999878  C 24.84085648148148 0.007161458333331705  24.913194444444446 0  25 0  C 25.086805555555557 0  25.159143518518523 0.007161458333331705  25.21701388888889 0.02148437499999878  L 49.52256944444444 7.583984375000001  Z " fill-rule="evenodd" />
    </mask>
  </defs>
  <g transform="matrix(1 0 0 1 -561 -666 )">
    <path d="M 26.041666666666668 19.099609375000004  L 38.49826388888889 15.2109375  L 38.88888888888889 22.000000000000004  C 38.94675925925926 22.988281249999996  38.35358796296296 23.90494791666666  37.109375 24.75  C 35.86516203703704 25.595052083333332  34.16521990740741 26.2646484375  32.00954861111111 26.7587890625  C 29.853877314814813 27.2529296875  27.51736111111111 27.5  25 27.5  C 22.48263888888889 27.5  20.14612268518519 27.2529296875  17.99045138888889 26.7587890625  C 15.834780092592593 26.2646484375  14.134837962962965 25.595052083333332  12.890625 24.75  C 11.64641203703704 23.90494791666666  11.05324074074074 22.988281249999996  11.11111111111111 22.000000000000004  L 11.50173611111111 15.2109375  L 23.958333333333336 19.099609375000004  C 24.276620370370374 19.199869791666668  24.62384259259259 19.249999999999996  25 19.249999999999996  C 25.376157407407412 19.249999999999996  25.723379629629633 19.199869791666668  26.041666666666668 19.099609375000004  Z M 49.52256944444444 7.583984375000001  C 49.84085648148149 7.69856770833333  50 7.920572916666664  50 8.25  C 50 8.579427083333332  49.84085648148149 8.801432291666663  49.52256944444444 8.916015624999998  L 25.21701388888889 16.478515625  C 25.159143518518523 16.492838541666664  25.086805555555557 16.5  25 16.5  C 24.913194444444446 16.5  24.84085648148148 16.492838541666664  24.78298611111111 16.478515625  L 10.633680555555555 12.052734375  C 10.011574074074076 12.539713541666663  9.49797453703704 13.33821614583333  9.092881944444445 14.448242187500002  C 8.687789351851853 15.558268229166664  8.441840277777777 16.836588541666664  8.355034722222223 18.283203124999996  C 9.266493055555555 18.798828124999996  9.722222222222223 19.57942708333333  9.722222222222223 20.625  C 9.722222222222223 21.613281250000004  9.302662037037038 22.379557291666664  8.463541666666668 22.923828124999996  L 9.722222222222223 32.2265625  C 9.751157407407408 32.42708333333333  9.69328703703704 32.60611979166667  9.54861111111111 32.763671875  C 9.418402777777777 32.921223958333336  9.244791666666668 33  9.027777777777777 33  L 4.861111111111112 33  C 4.644097222222222 33  4.470486111111112 32.921223958333336  4.340277777777778 32.763671875  C 4.195601851851852 32.60611979166667  4.137731481481482 32.42708333333333  4.166666666666666 32.2265625  L 5.425347222222222 22.923828124999996  C 4.586226851851852 22.379557291666664  4.166666666666666 21.613281250000004  4.166666666666666 20.625  C 4.166666666666666 19.57942708333333  4.636863425925926 18.784505208333336  5.577256944444445 18.240234375  C 5.736400462962964 15.275390625  6.4453125 12.912109374999998  7.703993055555555 11.150390625  L 0.4774305555555556 8.916015624999998  C 0.15914351851851852 8.801432291666663  0 8.579427083333332  0 8.25  C 0 7.920572916666664  0.15914351851851852 7.69856770833333  0.4774305555555556 7.583984375000001  L 24.78298611111111 0.02148437499999878  C 24.84085648148148 0.007161458333331705  24.913194444444446 0  25 0  C 25.086805555555557 0  25.159143518518523 0.007161458333331705  25.21701388888889 0.02148437499999878  L 49.52256944444444 7.583984375000001  Z " fill-rule="nonzero" fill="rgba(0, 0, 0, 1)" stroke="none" transform="matrix(1 0 0 1 561 666 )" class="fill" />
    <path d="M 26.041666666666668 19.099609375000004  L 38.49826388888889 15.2109375  L 38.88888888888889 22.000000000000004  C 38.94675925925926 22.988281249999996  38.35358796296296 23.90494791666666  37.109375 24.75  C 35.86516203703704 25.595052083333332  34.16521990740741 26.2646484375  32.00954861111111 26.7587890625  C 29.853877314814813 27.2529296875  27.51736111111111 27.5  25 27.5  C 22.48263888888889 27.5  20.14612268518519 27.2529296875  17.99045138888889 26.7587890625  C 15.834780092592593 26.2646484375  14.134837962962965 25.595052083333332  12.890625 24.75  C 11.64641203703704 23.90494791666666  11.05324074074074 22.988281249999996  11.11111111111111 22.000000000000004  L 11.50173611111111 15.2109375  L 23.958333333333336 19.099609375000004  C 24.276620370370374 19.199869791666668  24.62384259259259 19.249999999999996  25 19.249999999999996  C 25.376157407407412 19.249999999999996  25.723379629629633 19.199869791666668  26.041666666666668 19.099609375000004  Z " stroke-width="0" stroke-dasharray="0" stroke="rgba(255, 255, 255, 0)" fill="none" transform="matrix(1 0 0 1 561 666 )" class="stroke" mask="url(#Clip8)" />
    <path d="M 49.52256944444444 7.583984375000001  C 49.84085648148149 7.69856770833333  50 7.920572916666664  50 8.25  C 50 8.579427083333332  49.84085648148149 8.801432291666663  49.52256944444444 8.916015624999998  L 25.21701388888889 16.478515625  C 25.159143518518523 16.492838541666664  25.086805555555557 16.5  25 16.5  C 24.913194444444446 16.5  24.84085648148148 16.492838541666664  24.78298611111111 16.478515625  L 10.633680555555555 12.052734375  C 10.011574074074076 12.539713541666663  9.49797453703704 13.33821614583333  9.092881944444445 14.448242187500002  C 8.687789351851853 15.558268229166664  8.441840277777777 16.836588541666664  8.355034722222223 18.283203124999996  C 9.266493055555555 18.798828124999996  9.722222222222223 19.57942708333333  9.722222222222223 20.625  C 9.722222222222223 21.613281250000004  9.302662037037038 22.379557291666664  8.463541666666668 22.923828124999996  L 9.722222222222223 32.2265625  C 9.751157407407408 32.42708333333333  9.69328703703704 32.60611979166667  9.54861111111111 32.763671875  C 9.418402777777777 32.921223958333336  9.244791666666668 33  9.027777777777777 33  L 4.861111111111112 33  C 4.644097222222222 33  4.470486111111112 32.921223958333336  4.340277777777778 32.763671875  C 4.195601851851852 32.60611979166667  4.137731481481482 32.42708333333333  4.166666666666666 32.2265625  L 5.425347222222222 22.923828124999996  C 4.586226851851852 22.379557291666664  4.166666666666666 21.613281250000004  4.166666666666666 20.625  C 4.166666666666666 19.57942708333333  4.636863425925926 18.784505208333336  5.577256944444445 18.240234375  C 5.736400462962964 15.275390625  6.4453125 12.912109374999998  7.703993055555555 11.150390625  L 0.4774305555555556 8.916015624999998  C 0.15914351851851852 8.801432291666663  0 8.579427083333332  0 8.25  C 0 7.920572916666664  0.15914351851851852 7.69856770833333  0.4774305555555556 7.583984375000001  L 24.78298611111111 0.02148437499999878  C 24.84085648148148 0.007161458333331705  24.913194444444446 0  25 0  C 25.086805555555557 0  25.159143518518523 0.007161458333331705  25.21701388888889 0.02148437499999878  L 49.52256944444444 7.583984375000001  Z " stroke-width="0" stroke-dasharray="0" stroke="rgba(255, 255, 255, 0)" fill="none" transform="matrix(1 0 0 1 561 666 )" class="stroke" mask="url(#Clip8)" />
  </g>
</svg>