<?xml version="1.0" encoding="utf-8"?>
<svg version="1.1" xmlns:xlink="http://www.w3.org/1999/xlink" width="50px" height="48px" xmlns="http://www.w3.org/2000/svg">
  <defs>
    <pattern id="BGPattern" patternUnits="userSpaceOnUse" alignment="0 0" imageRepeat="None" />
    <mask fill="white" id="Clip11">
      <path d="M 48.81258023106547 19.84086311530681  C 49.604193410355165 20.682400539447066  50.000000000000014 21.66419420094403  50 22.786244099797706  C 50.000000000000014 23.929871881321645  49.604193410355165 24.90087660148348  48.81258023106547 25.69925826028321  L 27.9204107830552 46.8024275118004  C 27.086007702182286 47.60080917060014  26.112537441163887 48  25 48  C 23.866067608044503 48  22.90329482242191 47.60080917060014  22.111681643132222 46.8024275118004  L 1.2195121951219512 25.69925826028321  C 0.4065040650406505 24.922454484153743  0 23.95144976399191  0 22.786244099797706  C 0 21.642616318273767  0.4065040650406505 20.6608226567768  1.2195121951219512 19.84086311530681  L 3.594351732991014 17.41335131490223  C 4.428754813863929 16.614969656102488  5.402225074882329 16.215778826702632  6.514762516046213 16.215778826702632  C 7.648694908001713 16.215778826702632  8.611467693624306 16.614969656102488  9.403080872913993 17.41335131490223  L 19 26.929197572488203  L 19 4.1429534726904915  C 18.838254172015404 3.020903573836817  19.244758237056057 2.0498988536749785  20.057766367137354 1.2299393122049924  C 20.870774497218658 0.40997977073499037  21.833547282841252 0  22.946084724005132 0  L 27.053915275994868 0  C 28.16645271715875 0  29.12922550278135 0.40997977073499037  29.942233632862646 1.2299393122049924  C 30.755241762943946 2.0498988536749785  31.161745827984593 3.020903573836817  31 4.1429534726904915  L 31 26.929197572488203  L 40.596919127086004 17.41335131490223  C 41.388532306375694 16.614969656102488  42.35130509199829 16.215778826702632  43.48523748395379 16.215778826702632  C 44.597774925117676 16.215778826702632  45.571245186136075 16.614969656102488  46.405648267008985 17.41335131490223  L 48.81258023106547 19.84086311530681  Z " fill-rule="evenodd" />
    </mask>
  </defs>
  <g transform="matrix(1 0 0 1 -576 -1113 )">
    <path d="M 48.81258023106547 19.84086311530681  C 49.604193410355165 20.682400539447066  50.000000000000014 21.66419420094403  50 22.786244099797706  C 50.000000000000014 23.929871881321645  49.604193410355165 24.90087660148348  48.81258023106547 25.69925826028321  L 27.9204107830552 46.8024275118004  C 27.086007702182286 47.60080917060014  26.112537441163887 48  25 48  C 23.866067608044503 48  22.90329482242191 47.60080917060014  22.111681643132222 46.8024275118004  L 1.2195121951219512 25.69925826028321  C 0.4065040650406505 24.922454484153743  0 23.95144976399191  0 22.786244099797706  C 0 21.642616318273767  0.4065040650406505 20.6608226567768  1.2195121951219512 19.84086311530681  L 3.594351732991014 17.41335131490223  C 4.428754813863929 16.614969656102488  5.402225074882329 16.215778826702632  6.514762516046213 16.215778826702632  C 7.648694908001713 16.215778826702632  8.611467693624306 16.614969656102488  9.403080872913993 17.41335131490223  L 19 26.929197572488203  L 19 4.1429534726904915  C 18.838254172015404 3.020903573836817  19.244758237056057 2.0498988536749785  20.057766367137354 1.2299393122049924  C 20.870774497218658 0.40997977073499037  21.833547282841252 0  22.946084724005132 0  L 27.053915275994868 0  C 28.16645271715875 0  29.12922550278135 0.40997977073499037  29.942233632862646 1.2299393122049924  C 30.755241762943946 2.0498988536749785  31.161745827984593 3.020903573836817  31 4.1429534726904915  L 31 26.929197572488203  L 40.596919127086004 17.41335131490223  C 41.388532306375694 16.614969656102488  42.35130509199829 16.215778826702632  43.48523748395379 16.215778826702632  C 44.597774925117676 16.215778826702632  45.571245186136075 16.614969656102488  46.405648267008985 17.41335131490223  L 48.81258023106547 19.84086311530681  Z " fill-rule="nonzero" fill="rgba(0, 0, 0, 1)" stroke="none" transform="matrix(1 0 0 1 576 1113 )" class="fill" />
    <path d="M 48.81258023106547 19.84086311530681  C 49.604193410355165 20.682400539447066  50.000000000000014 21.66419420094403  50 22.786244099797706  C 50.000000000000014 23.929871881321645  49.604193410355165 24.90087660148348  48.81258023106547 25.69925826028321  L 27.9204107830552 46.8024275118004  C 27.086007702182286 47.60080917060014  26.112537441163887 48  25 48  C 23.866067608044503 48  22.90329482242191 47.60080917060014  22.111681643132222 46.8024275118004  L 1.2195121951219512 25.69925826028321  C 0.4065040650406505 24.922454484153743  0 23.95144976399191  0 22.786244099797706  C 0 21.642616318273767  0.4065040650406505 20.6608226567768  1.2195121951219512 19.84086311530681  L 3.594351732991014 17.41335131490223  C 4.428754813863929 16.614969656102488  5.402225074882329 16.215778826702632  6.514762516046213 16.215778826702632  C 7.648694908001713 16.215778826702632  8.611467693624306 16.614969656102488  9.403080872913993 17.41335131490223  L 19 26.929197572488203  L 19 4.1429534726904915  C 18.838254172015404 3.020903573836817  19.244758237056057 2.0498988536749785  20.057766367137354 1.2299393122049924  C 20.870774497218658 0.40997977073499037  21.833547282841252 0  22.946084724005132 0  L 27.053915275994868 0  C 28.16645271715875 0  29.12922550278135 0.40997977073499037  29.942233632862646 1.2299393122049924  C 30.755241762943946 2.0498988536749785  31.161745827984593 3.020903573836817  31 4.1429534726904915  L 31 26.929197572488203  L 40.596919127086004 17.41335131490223  C 41.388532306375694 16.614969656102488  42.35130509199829 16.215778826702632  43.48523748395379 16.215778826702632  C 44.597774925117676 16.215778826702632  45.571245186136075 16.614969656102488  46.405648267008985 17.41335131490223  L 48.81258023106547 19.84086311530681  Z " stroke-width="0" stroke-dasharray="0" stroke="rgba(255, 255, 255, 0)" fill="none" transform="matrix(1 0 0 1 576 1113 )" class="stroke" mask="url(#Clip11)" />
  </g>
</svg>